Sprint_08100001_forces_filt50Hz.mot
version=1
nRows=24
nColumns=19
inDegrees=yes
endheader
time	R_ground_force_vx	R_ground_force_vy	R_ground_force_vz	R_ground_force_px	R_ground_force_py	R_ground_force_pz	R_ground_torque_x	R_ground_torque_y	R_ground_torque_z	L_ground_force_vx	L_ground_force_vy	L_ground_force_vz	L_ground_force_px	L_ground_force_py	L_ground_force_pz	L_ground_torque_x	L_ground_torque_y	L_ground_torque_z	
2.927000	  0.000000	  0.000000	  0.000000	  0.202139	  0.000000	 -0.207233	  0.000000	  0.000000	  0.000000	  0.000000	  0.000000	  0.000000	  1.165101	  0.000000	 -0.364598	  0.000000	  0.000000	  0.000000
2.927500	  0.000000	  0.000000	  0.000000	  0.204590	  0.000000	 -0.206977	  0.000000	  0.000000	  0.000000	  0.000000	  0.000000	  0.000000	  1.136957	 -0.000000	 -0.375666	  0.000000	  0.000000	  0.000000
2.928000	  0.000000	  0.000000	  0.000000	  0.207041	  0.000000	 -0.206721	  0.000000	  0.000000	  0.000000	 19.518381	 19.116285	 -2.523921	  1.108814	 -0.000000	 -0.386735	  0.000000	  6.679794	  0.000000
2.928500	  0.000000	  0.000000	  0.000000	  0.209492	  0.000000	 -0.206465	  0.000000	  0.000000	  0.000000	  1.720012	 38.925737	-10.041179	  1.080671	 -0.000000	 -0.397803	  0.000000	  7.895179	  0.000000
2.929000	  0.000000	  0.000000	  0.000000	  0.211942	  0.000000	 -0.206209	  0.000000	  0.000000	  0.000000	-18.257279	 62.585043	-18.300350	  1.052528	 -0.000000	 -0.408871	  0.000000	  7.921861	  0.000000
2.929500	  0.000000	  0.000000	  0.000000	  0.214393	  0.000000	 -0.205953	  0.000000	  0.000000	  0.000000	-40.479548	 90.396816	-27.136975	  1.024384	  0.000000	 -0.419940	  0.000000	  7.087822	  0.000000
2.930000	  0.000000	  0.000000	  0.000000	  0.216844	  0.000000	 -0.205697	  0.000000	  0.000000	  0.000000	-64.989650	122.623978	-36.357681	  0.996241	  0.000000	 -0.431008	  0.000000	  5.629616	  0.000000
2.930500	  0.000000	  0.000000	  0.000000	  0.219009	  0.000000	 -0.205589	  0.000000	  0.000000	  0.000000	-91.799928	159.472610	-45.743168	  0.968098	  0.000000	 -0.442077	  0.000000	  3.724176	  0.000000
2.931000	  0.000000	  0.000000	  0.000000	  0.221174	  0.000000	 -0.205481	  0.000000	  0.000000	  0.000000	-120.885236	201.072105	-55.052870	  0.939954	  0.000000	 -0.453145	  0.000000	  1.509704	  0.000000
2.931500	  0.000000	  0.000000	  0.000000	  0.223339	  0.000000	 -0.205373	  0.000000	  0.000000	  0.000000	-152.177147	247.452510	-64.031004	  0.911811	  0.000000	 -0.464213	  0.000000	 -0.900738	  0.000000
2.932000	  0.000000	  0.000000	  0.000000	  0.225504	  0.000000	 -0.205264	  0.000000	  0.000000	  0.000000	-185.560143	298.518986	-72.413201	  0.911940	  0.000000	 -0.462575	  0.000000	 -3.410509	  0.000000
2.932500	  0.000000	  0.000000	  0.000000	  0.227669	  0.000000	 -0.205156	  0.000000	  0.000000	  0.000000	-220.870000	354.023360	-79.932870	  0.910890	  0.000000	 -0.460334	  0.000000	 -5.934084	  0.000000
2.933000	  0.000000	  0.000000	  0.000000	  0.229834	  0.000000	 -0.205048	  0.000000	  0.000000	  0.000000	-257.893898	413.532865	-86.326395	  0.909003	  0.000000	 -0.457668	  0.000000	 -8.394312	  0.000000
2.933500	  0.000000	  0.000000	  0.000000	  0.231999	  0.000000	 -0.204939	  0.000000	  0.000000	  0.000000	-296.371788	476.412423	-91.336877	  0.906525	  0.000000	 -0.454709	  0.000000	-10.721118	  0.000000
2.934000	  0.000000	  0.000000	  0.000000	  0.234164	  0.000000	 -0.204831	  0.000000	  0.000000	  0.000000	-335.998443	541.853251	-94.716730	  0.903639	  0.000000	 -0.451558	  0.000000	-12.850278	  0.000000
2.934500	  0.000000	  0.000000	  0.000000	  0.236329	  0.000000	 -0.204723	  0.000000	  0.000000	  0.000000	-376.425734	608.941523	-96.229854	  0.900493	  0.000000	 -0.448288	  0.000000	-14.721427	  0.000000
2.935000	  0.000000	  0.000000	  0.000000	  0.238494	  0.000000	 -0.204615	  0.000000	  0.000000	  0.000000	-417.264776	676.721720	-95.654394	  0.897220	  0.000000	 -0.444949	  0.000000	-16.275167	  0.000000
2.935500	  0.000000	  0.000000	  0.000000	  0.240830	  0.000000	 -0.204442	  0.000000	  0.000000	  0.000000	-458.087566	744.240259	-92.787216	  0.893945	  0.000000	 -0.441567	  0.000000	-17.449833	  0.000000
2.936000	  0.000000	  0.000000	  0.000000	  0.243167	  0.000000	 -0.204270	  0.000000	  0.000000	  0.000000	-498.427744	810.585931	-87.451308	  0.890790	  0.000000	 -0.438152	  0.000000	-18.179121	  0.000000
2.936500	  0.000000	  0.000000	  0.000000	  0.245503	  0.000000	 -0.204097	  0.000000	  0.000000	  0.000000	-537.780675	874.931662	-79.506175	  0.887873	  0.000000	 -0.434700	  0.000000	-18.391479	  0.000000
2.937000	  0.000000	  0.000000	  0.000000	  0.247839	  0.000000	 -0.203925	  0.000000	  0.000000	  0.000000	-575.603571	936.570020	-68.860097	  0.885311	  0.000000	 -0.431200	  0.000000	-18.011616	  0.000000
2.937500	  0.000000	  0.000000	  0.000000	  0.250176	  0.000000	 -0.203753	  0.000000	  0.000000	  0.000000	-611.316869	994.937141	-55.482053	  0.883217	  0.000000	 -0.427640	  0.000000	-16.964129	  0.000000
2.938000	  0.000000	  0.000000	  0.000000	  0.252512	  0.000000	 -0.203580	  0.000000	  0.000000	  0.000000	-644.308552	1049.622133	-39.410106	  0.881706	  0.000000	 -0.424009	  0.000000	-15.178840	  0.000000
2.938500	  0.000000	  0.000000	  0.000000	  0.254848	  0.000000	 -0.203408	  0.000000	  0.000000	  0.000000	-673.942901	1100.362894	-20.754101	  0.880899	  0.000000	 -0.420308	  0.000000	-12.596953	  0.000000
